<svg xmlns="http://www.w3.org/2000/svg" viewBox="0 0 280 120">
  <style type="text/css">
    .slice-blue {fill:none;stroke:#2D72AB;stroke-width:0.75;stroke-miterlimit:10;}
    .slice-orange {fill:none;stroke:#DD7D26;stroke-width:0.75;stroke-miterlimit:10;}
    .attack-path {fill:none;stroke:#DA2525;stroke-width:1.5;stroke-miterlimit:10;}
    .label {font-family:Figtree,ui-sans-serif,sans-serif;font-size:7px;font-weight:700;fill:#666;}
    .label-mec {font-family:Figtree,ui-sans-serif,sans-serif;font-size:6px;font-weight:700;fill:#999;}
  </style>
  
  <!-- Left 5G Slices -->
  <polygon class="slice-blue" points="15.9 26.1 8.5 30.7 8.5 39.8 15.7 44.3 23.1 39.8 23.1 30.8"/>
  <polygon class="slice-blue" points="23.6 10.9 16.1 15.4 16.1 25.1 23.6 29.6 31.1 25.1 31.1 15.6"/>
  <polygon class="slice-blue" points="39.6 10.9 31.8 15.4 31.8 25.1 39.5 29.6 47.4 25.1 47.4 15.6"/>
  <polygon class="slice-blue" points="55.8 10.9 48 15.4 48 25.1 55.8 29.6 63.4 25.1 63.4 15.5"/>
  <polygon class="slice-blue" points="31.4 26.3 23.9 30.8 23.9 39.8 31.4 44.3 39 39.8 39 30.8"/>
  <polygon class="slice-blue" points="47.8 26.3 39.8 30.8 39.8 39.8 47.8 44.3 55.5 39.8 55.5 30.8"/>
  <polygon class="slice-blue" points="64 26.1 56.4 30.8 56.4 39.8 63.9 44.3 71.8 39.7 71.8 30.8"/>
  <polygon class="slice-blue" points="8.3 40.8 1.2 45.4 1.2 54.6 8.3 58.9 15.3 54.6 15.3 45.3"/>
  <polygon class="slice-blue" points="23.6 40.8 15.9 45.4 15.9 54.5 23.6 58.9 31.1 54.5 31.1 45.4"/>
  <polygon class="slice-blue" points="39.5 40.8 31.8 45.4 31.8 54.5 39.5 58.9 47.4 54.5 47.4 45.3"/>
  <polygon class="slice-blue" points="55.8 40.8 48 45.4 48 54.5 55.8 58.9 63.4 54.6 63.4 45.1"/>
  <polygon class="slice-blue" points="15.7 55.7 8.6 60 8.6 68.9 15.7 73.3 23.2 68.9 23.2 60"/>
  <polygon class="slice-blue" points="31.5 55.7 23.9 60 23.9 68.9 31.5 73.3 39 68.9 39 60"/>
  <polygon class="slice-blue" points="47.9 55.7 46.3 56.5 47.9 55.7 39.7 60 39.7 69 47.8 73.3 55.4 68.9 55.4 60"/>
  <polygon class="slice-blue" points="64 55.6 56.4 60 56.4 68.9 63.7 73.3 71.7 68.9 71.7 60"/>
  <polygon class="slice-blue" points="23.6 69.8 16.1 74.2 16.1 83.5 23.7 88.3 31.1 83.7 31.1 74.3"/>
  <polygon class="slice-blue" points="39.4 69.8 31.8 74.2 31.8 83.7 39.5 88.3 47.4 83.7 47.4 74.3"/>
  <polygon class="slice-blue" points="55.8 69.8 48 74.2 48 83.5 55.8 88.3 63.3 83.6 63.3 74.2"/>

  <!-- Right 5G Slices -->
  <polygon class="slice-orange" points="136.6 26.1 128.5 30.8 128.5 39.8 136.4 44.3 143.9 39.8 143.9 30.8"/>
  <polygon class="slice-orange" points="144.5 10.9 136.7 15.5 136.7 25.1 144.4 29.6 152.2 25.1 152.2 15.6"/>
  <polygon class="slice-orange" points="160.3 10.9 152.9 15.4 152.9 25.1 160.3 29.6 168.3 25.1 168.3 15.6"/>
  <polygon class="slice-orange" points="177.1 11.7 176.9 11.6 176.9 11.6 177 11.7 176.9 11.6 169.1 15.6 169.1 25.1 176.9 29.6 184.3 25.1 184.3 15.5"/>
  <polygon class="slice-orange" points="168.6 26.3 160.9 30.8 160.9 39.8 168.7 44.3 176.6 39.8 176.6 30.8"/>
  <polygon class="slice-orange" points="184.6 26.5 184.6 26.5 184.6 26.5 184.6 26.5 184.6 26.5 184.4 26.4 177.6 30.8 177.6 39.8 184.6 44.3 191.8 39.8 191.8 30.7"/>
  <polygon class="slice-orange" points="144.4 40.8 136.7 45.4 136.7 54.6 144.4 58.9 152.3 54.5 152.3 45.4"/>
  <polygon class="slice-orange" points="160.3 40.8 152.9 45.4 152.9 54.5 160.3 58.9 168.3 54.5 168.3 45.4"/>
  <polygon class="slice-orange" points="176.9 40.9 176.9 40.9 176.9 40.9 176.9 40.9 176.9 40.9 176.7 40.8 169.1 45.4 169.1 54.5 176.9 58.9 184.3 54.5 184.6 45.4"/>
  <polygon class="slice-orange" points="192.3 40.8 185 45.4 185 54.6 192.3 59 198.8 54.6 198.8 45.4"/>
  <polygon class="slice-orange" points="136.4 55.6 128.5 59.9 128.5 68.8 136.4 73.4 143.9 68.9 143.9 60"/>
  <polygon class="slice-orange" points="152.6 55.7 144.7 60 144.7 68.9 152.6 73.3 159.8 68.9 159.8 60"/>
  <polygon class="slice-orange" points="168.7 55.7 160.9 60 160.9 69 168.9 73.4 176.6 68.9 176.6 60"/>
  <polygon class="slice-orange" points="184.6 56.1 184.6 56.1 184.6 56.1 184.6 56.1 184.6 56.1 184.4 56 177.6 60 177.6 69 184.6 73.4 191.8 68.9 191.8 60"/>
  <polygon class="slice-orange" points="144.4 69.8 136.7 74.2 136.7 83.6 144.4 88.3 152.3 83.7 152.3 74.3"/>
  <polygon class="slice-orange" points="160.3 69.8 152.9 74.2 152.9 83.6 160.3 88.3 168.3 83.7 168.3 74.3"/>
  <polygon class="slice-orange" points="176.9 70.1 176.9 70.1 176.9 70.1 176.9 70.1 176.9 70.1 176.7 70 169.1 74.3 169.1 83.6 176.9 88.3 184.2 83.6 184.2 74.2"/>

  <!-- Attack path -->
  <polyline class="attack-path" points="64 60 75 65 95 50 100 54 110 44 120 50 160 20 170 26 180 18 190 24 210 8 220 14"/>
  
  <!-- Shared MEC label -->
  <text x="110" y="58" text-anchor="middle" class="label-mec">Shared MEC</text>
  <text x="110" y="68" text-anchor="middle" class="label-mec">Infrastructure</text>
  
  <!-- Labels -->
  <text x="36" y="98" text-anchor="middle" class="label">5G Slices (IoT)</text>
  <text x="175" y="98" text-anchor="middle" class="label">5G Slices (OT)</text>
  <text x="200" y="18" text-anchor="middle" class="label" fill="#DA2525">Cross-slice attack path</text>
</svg>